<svg width="137" height="30" viewBox="0 0 137 30" fill="none" xmlns="http://www.w3.org/2000/svg">
<path d="M8.8622 29.8946C6.17716 29.9736 3.50268 29.5044 1.00227 28.5237L0 22.2496H0.791268L1.58254 23.7258C3.37608 27.2583 5.64438 28.7873 9.23146 28.7873C13.346 28.7873 15.7199 26.7311 15.7199 23.4095C15.7199 20.4042 13.9791 18.9279 9.0732 17.188C3.53433 15.29 0.738517 13.1283 0.738517 8.3304C0.738517 3.53251 5.11686 0 10.5502 0C13.9263 0 15.9309 0.474517 17.7771 1.21265L18.8322 7.69772H17.9882L17.2496 6.16872C15.5616 2.6362 13.4516 1.05448 10.2337 1.05448C6.85765 1.05448 4.85311 3.11072 4.85311 6.01054C4.85311 8.91037 6.4884 10.3866 11.1833 11.9684C17.3024 14.0246 19.8872 16.3445 19.8872 21.0896C19.8872 26.362 14.8758 29.8946 8.8622 29.8946Z" fill="#ffffff"/>
<path d="M34.6567 27.3624C32.9159 28.8387 31.1751 29.8404 28.9596 29.8404C25.689 29.8404 23.9482 28.3642 23.9482 24.8317V11.2816H20.9414V10.4907L24.1592 9.27805L27.3771 2.89844H28.6958V9.43622H34.182V11.2816H28.6431V24.7789C28.6431 26.7824 29.6454 27.7842 31.2279 27.7842C32.2671 27.8053 33.2799 27.452 34.0764 26.7824L34.6567 27.3624Z" fill="#ffffff"/>
<path d="M46.1576 29.9998C40.1967 29.9998 35.8184 26.2563 35.8184 19.244C35.8184 13.2862 40.0912 8.75195 46.1576 8.75195C52.224 8.75195 56.4968 12.4954 56.4968 19.5077C56.4441 25.4128 52.1712 29.9998 46.1576 29.9998ZM45.5773 9.80643C42.676 9.80643 41.0407 12.0208 41.0407 18.0314C41.0407 24.6219 43.1508 28.8925 46.6851 28.8925C49.6392 28.8925 51.2217 26.6781 51.2217 20.6676C51.2745 14.1298 49.1644 9.80643 45.5773 9.80643Z" fill="#ffffff"/>
<path d="M81.6578 29.5253C80.7083 29.5253 78.2817 29.4725 76.4354 29.4725C74.5891 29.4725 72.2153 29.5253 71.213 29.5253V28.8926L71.9515 28.7871C73.7978 28.4708 74.1144 27.8908 74.1144 24.1474V16.0806C74.1144 12.9699 72.7428 11.4409 70.369 11.4409C68.8023 11.4514 67.2883 12.0103 66.0962 13.0226V24.1474C66.0962 27.8908 66.3599 28.4181 68.259 28.7871L68.9447 28.8926V29.5253C67.9425 29.5253 65.5687 29.4725 63.7224 29.4725C61.8761 29.4725 59.4495 29.5253 58.5 29.5253V28.8926L59.344 28.7871C61.0848 28.5235 61.4013 27.8908 61.4013 23.7783V14.9207C61.4013 12.7063 61.0321 12.0736 59.5023 11.3882L58.5 10.9137V10.4391L65.6214 8.85742L66.2017 9.22649V12.0736C68.47 10.1755 70.5273 8.85742 73.2176 8.85742C77.0157 8.85742 79.073 10.9137 79.073 15.1843V23.7783C79.073 27.9435 79.3895 28.4181 81.183 28.7871L81.9215 28.8926V29.5253H81.6578Z" fill="#ffffff"/>
<path d="M87.6733 17.4514V17.715C87.7788 23.6201 90.9439 27.1526 95.1639 27.1526C97.485 27.1526 99.1203 26.3091 100.861 24.5692L101.441 24.991C99.2258 28.049 96.3772 29.9997 92.6846 29.9997C87.304 29.9997 83.2422 26.2563 83.2422 19.9294C83.2422 13.0753 88.4118 8.69922 93.3704 8.69922C98.8565 8.69922 101.494 11.7572 101.652 17.3987L87.6733 17.4514ZM96.641 16.3442C96.5355 12.0736 94.9529 9.85915 92.5264 9.85915C89.7306 9.85915 87.9898 12.2317 87.6733 16.3442H96.641Z" fill="#ffffff"/>
<path d="M131.562 29.524C130.823 29.524 127.131 29.4186 125.706 29.4186C124.177 29.4186 119.587 29.524 118.849 29.524V28.9441L120.168 28.7332C121.434 28.5223 121.961 28.2059 121.961 27.4151C121.961 26.7824 121.539 25.9388 120.642 24.568L116.053 17.5556L111.464 23.8825C110.409 25.3588 109.934 26.466 109.934 27.2569C109.934 28.0477 110.409 28.575 111.675 28.7859L113.046 28.9968V29.5767C112.308 29.5767 109.037 29.4713 107.56 29.4713C106.083 29.4713 103.762 29.5767 102.971 29.5767V28.9968L103.656 28.8913C105.503 28.575 107.244 26.9933 108.615 25.2534L115.314 16.5012L108.721 6.85266C107.191 4.58553 106.136 3.58377 104.5 3.26742L103.656 3.10925V2.52929C104.395 2.52929 108.088 2.63473 109.512 2.63473C111.042 2.63473 115.525 2.52929 116.317 2.52929V3.10925L114.998 3.32015C113.89 3.47832 113.257 3.84739 113.257 4.63825C113.257 5.27094 113.679 6.11452 114.576 7.48535L118.532 13.5486L122.383 8.17076C123.385 6.69449 123.913 5.58728 123.913 4.79642C123.913 4.00556 123.385 3.47832 122.172 3.26742L120.801 3.05653V2.47656C121.539 2.47656 124.81 2.58201 126.287 2.58201C127.764 2.58201 130.085 2.47656 130.876 2.47656V3.05653L130.19 3.16198C128.344 3.47832 126.656 4.90187 125.232 6.79994L119.271 14.5504L126.498 25.0952C128.028 27.3623 129.083 28.3641 130.718 28.6804L131.562 28.8386V29.524Z" fill="#ffffff"/>
<path d="M135.727 2.26187C135.981 2.40422 136.186 2.61512 136.329 2.86292C136.624 3.39016 136.624 4.0334 136.329 4.56064C136.186 4.81371 135.975 5.01934 135.722 5.16697C135.195 5.46222 134.551 5.46222 134.024 5.16697C133.77 5.02461 133.559 4.81371 133.417 4.56064C133.121 4.0334 133.121 3.39017 133.417 2.85765C133.559 2.60985 133.77 2.39895 134.018 2.2566C134.546 1.96134 135.195 1.96134 135.722 2.2566L135.727 2.26187ZM135.617 4.9877C135.833 4.86117 136.017 4.68191 136.139 4.46046C136.265 4.23375 136.334 3.9754 136.329 3.71178C136.329 3.45343 136.265 3.19509 136.139 2.96837C136.017 2.74693 135.833 2.56767 135.617 2.44113C135.158 2.18278 134.593 2.18278 134.134 2.44113C133.913 2.56767 133.733 2.74693 133.607 2.96837C133.48 3.19509 133.412 3.45343 133.417 3.71178C133.417 3.9754 133.48 4.23375 133.607 4.46046C133.733 4.68191 133.913 4.86117 134.134 4.9877C134.593 5.24605 135.158 5.24605 135.617 4.9877ZM135.448 4.09667L135.812 4.70299H135.427L135.057 4.06503C135.026 4.01231 134.989 3.97013 134.936 3.94377C134.883 3.91741 134.825 3.90686 134.767 3.90686H134.519V4.69772H134.176V2.72057H135.005C135.189 2.71002 135.369 2.76275 135.511 2.87347C135.727 3.09491 135.748 3.44289 135.559 3.68542C135.458 3.79087 135.326 3.85941 135.184 3.87523C135.295 3.91213 135.39 3.99122 135.448 4.0914V4.09667ZM135.253 3.56415C135.321 3.50089 135.353 3.41653 135.348 3.3269C135.358 3.23199 135.321 3.14236 135.253 3.07909C135.168 3.0211 135.063 2.99473 134.962 3.00001H134.519V3.64324H134.962C135.068 3.65379 135.168 3.62215 135.253 3.56415Z" fill="#ffffff"/>
</svg>
